<?xml version="1.0" standalone="no"?>
<!DOCTYPE svg PUBLIC "-//W3C//DTD SVG 20010904//EN"
 "http://www.w3.org/TR/2001/REC-SVG-20010904/DTD/svg10.dtd">
<svg version="1.0" xmlns="http://www.w3.org/2000/svg"
 width="131.000000pt" height="131.000000pt" viewBox="0 0 131.000000 131.000000"
 preserveAspectRatio="xMidYMid meet">
<metadata>
Created by potrace 1.14, written by Peter Selinger 2001-2017
</metadata>
<g transform="translate(0.000000,131.000000) scale(0.100000,-0.100000)"
fill="#000000" stroke="none">
<path d="M68 1239 l-38 -40 2 -549 3 -550 33 -32 32 -33 543 -3 c489 -3 545
-1 573 13 67 35 65 21 62 623 l-3 544 -37 34 -38 34 -546 0 -547 0 -39 -41z
m464 -306 c51 -20 98 -53 98 -67 -1 -6 -11 -24 -24 -40 l-24 -29 -53 27 c-97
48 -217 28 -271 -45 -38 -51 -51 -103 -46 -181 9 -121 76 -195 188 -206 46 -4
104 15 152 50 15 11 22 8 50 -20 l33 -33 -30 -26 c-58 -49 -113 -67 -206 -67
-73 0 -93 4 -141 27 -64 31 -111 80 -142 146 -17 38 -21 65 -21 156 0 109 1
112 35 169 42 69 95 114 164 138 67 23 182 23 238 1z m487 7 c105 -20 144 -52
162 -129 13 -58 -7 -108 -58 -147 -41 -31 -45 -44 -14 -44 20 -1 65 -38 80
-67 16 -32 13 -113 -7 -150 -44 -81 -109 -103 -303 -103 l-149 0 0 325 0 325
119 0 c65 0 142 -4 170 -10z"/>
<path d="M848 854 c-5 -4 -8 -47 -8 -96 l0 -88 80 0 c43 0 90 5 104 11 52 24
60 123 12 154 -25 17 -176 32 -188 19z"/>
<path d="M846 582 c-3 -3 -6 -48 -6 -100 l0 -94 96 4 c94 3 96 4 125 36 39 43
39 84 0 123 -27 27 -36 29 -103 30 -40 0 -81 2 -90 4 -9 2 -19 0 -22 -3z"/>
</g>
</svg>
